<svg width="70" height="66" viewBox="0 0 70 66" fill="none" xmlns="http://www.w3.org/2000/svg">
<circle cx="36.5714" cy="32.5714" r="30.5714" stroke="white" stroke-width="4"/>
<path d="M19.136 31.9918H20.4487C21.292 31.9918 21.9723 32.211 22.4894 32.6493C22.9985 33.0877 23.2531 33.6721 23.2531 34.4027C23.2531 35.1333 22.9985 35.7215 22.4894 36.1671C21.9802 36.6128 21.3 36.8356 20.4487 36.8356H16.9999V29.1644H22.5371V31.0603H19.136V31.9918ZM19.136 35.0384H20.3652C20.8744 35.0384 21.1289 34.8265 21.1289 34.4027C21.1289 34.1909 21.0613 34.0301 20.9261 33.9205C20.7908 33.811 20.6039 33.7562 20.3652 33.7562H19.136V35.0384Z" fill="white"/>
<path d="M30.7927 36.8356H28.6686V32.9781L25.721 36.8356H24.0622V29.1644H26.1983V33.0219L29.1459 29.1644H30.7927V36.8356Z" fill="white"/>
<path d="M36.6021 32.0027V29.1644H38.7262V36.8356H36.6021V33.8877H34.2511V36.8356H32.115V29.1644H34.2511V32.0027H36.6021Z" fill="white"/>
<path d="M47.2115 35.8493C46.3602 36.6164 45.326 37 44.1088 37C42.8756 37 41.8374 36.6164 40.9941 35.8493C40.1508 35.0749 39.7291 34.1251 39.7291 33C39.7291 31.8749 40.1508 30.9288 40.9941 30.1616C41.8374 29.3872 42.8756 29 44.1088 29C45.3339 29 46.3682 29.3872 47.2115 30.1616C48.0628 30.9288 48.4884 31.8749 48.4884 33C48.4884 34.1178 48.0628 35.0676 47.2115 35.8493ZM42.4977 34.5014C42.9353 34.8886 43.4723 35.0822 44.1088 35.0822C44.7452 35.0822 45.2822 34.8886 45.7198 34.5014C46.1494 34.1068 46.3642 33.6064 46.3642 33C46.3642 32.3863 46.1494 31.8895 45.7198 31.5096C45.2902 31.1151 44.7532 30.9178 44.1088 30.9178C43.4643 30.9178 42.9273 31.1151 42.4977 31.5096C42.0681 31.8895 41.8533 32.3863 41.8533 33C41.8533 33.6064 42.0681 34.1068 42.4977 34.5014Z" fill="white"/>
<path d="M55.8757 29.1644H57.9999V36.8356H55.8757V32.7041L53.847 35.7836H53.6322L51.6155 32.7151V36.8356H49.4793V29.1644H51.6155L53.7396 32.4411L55.8757 29.1644Z" fill="white"/>
<path d="M44.2647 41.436C42.3507 45.4248 39.1372 48.6442 35.1518 50.5654C31.1665 52.4867 26.6464 52.9956 22.3336 52.0086C18.0209 51.0216 14.172 48.5973 11.419 45.134C8.66598 41.6706 7.17255 37.374 7.18394 32.9498C7.19534 28.5256 8.71088 24.2367 11.4817 20.7876C14.2525 17.3385 18.1138 14.9341 22.4316 13.9693C26.7494 13.0045 31.2669 13.5367 35.2422 15.4785C39.2176 17.4202 42.4145 20.6561 44.3079 24.6547" stroke="white"/>
</svg>
