<svg width="74" height="92" viewBox="0 0 74 92" fill="none" xmlns="http://www.w3.org/2000/svg">
<circle cx="37" cy="55" r="23" stroke="white" stroke-width="12"/>
<rect x="33" width="8" height="26" fill="white"/>
<path d="M74 55C74 45.187 70.1018 35.7759 63.163 28.8371C56.2241 21.8982 46.813 18 37 18C27.187 18 17.7759 21.8982 10.8371 28.837C3.89821 35.7759 1.48172e-06 45.187 0 55H8.17869C8.17869 47.3561 11.2152 40.0253 16.6203 34.6203C22.0253 29.2152 29.3561 26.1787 37 26.1787C44.6439 26.1787 51.9747 29.2152 57.3797 34.6203C62.7848 40.0253 65.8213 47.3561 65.8213 55H74Z" fill="#F2F2F2"/>
</svg>
