<svg width="84" height="87" viewBox="0 0 84 87" fill="none" xmlns="http://www.w3.org/2000/svg">
<path d="M3.02724 23.4304C11.9071 3.4509 40.8471 -5.08094 58.3026 3.06486C44.3382 0.155658 22.2274 5.39395 14.6639 30.4129C7.1005 55.4319 44.9204 82.1969 43.1748 82.1969C41.4293 82.1969 -13.2648 60.0872 3.02724 23.4304Z" fill="white"/>
<path d="M29.095 30.0739C40.4861 18.3876 58.0245 17.034 69.8787 27.1312C60.8567 21.4778 46.3046 22.3379 34.5298 37.8929C22.755 53.448 43.2004 82.063 41.9784 81.6109C40.7565 81.1588 8.19565 51.515 29.095 30.0739Z" fill="white"/>
<path d="M38.5197 50.7763C39.7099 34.5002 52.6371 25.6544 68.1937 26.3374C57.602 27.4203 44.9201 34.4838 44.9201 53.1037C44.9201 71.7236 59.4662 82.7781 59.4662 82.7781C59.4662 82.7781 36.7751 74.6329 38.5197 50.7763Z" fill="white"/>
<path d="M59.8442 79.3337C52.2624 75.3257 49.8745 65.1725 52.3946 55.2058C51.4158 62.2993 52.9897 71.9389 61.8555 75.6399C70.7214 79.3409 78.0374 72.0918 78.0374 72.0918C78.0374 72.0918 70.9574 85.2085 59.8442 79.3337Z" fill="white"/>
</svg>
