<svg width="11" height="20" viewBox="0 0 11 20" fill="none" xmlns="http://www.w3.org/2000/svg">
<path d="M8.59247 19.9167C8.38083 19.9174 8.17171 19.8707 7.98049 19.78C7.78927 19.6893 7.6208 19.5569 7.48747 19.3925L0.644968 10.8925C0.436602 10.639 0.322693 10.3211 0.322693 9.99293C0.322693 9.6648 0.436602 9.34684 0.644968 9.09335L7.7283 0.593348C7.96876 0.304041 8.31431 0.122106 8.68891 0.0875681C9.06351 0.0530302 9.43649 0.168718 9.7258 0.409181C10.0151 0.649644 10.197 0.995185 10.2316 1.36979C10.2661 1.74439 10.1504 2.11737 9.90997 2.40668L3.57747 10L9.69747 17.5933C9.8707 17.8013 9.98075 18.0545 10.0146 18.323C10.0484 18.5916 10.0046 18.8642 9.88836 19.1086C9.77211 19.353 9.58829 19.559 9.35863 19.7022C9.12897 19.8454 8.8631 19.9198 8.59247 19.9167Z" fill="white"/>
</svg>
